<?xml version="1.0" encoding="UTF-8" standalone="no"?>
<!DOCTYPE svg PUBLIC "-//W3C//DTD SVG 1.1//EN" "http://www.w3.org/Graphics/SVG/1.1/DTD/svg11.dtd">
<svg xmlns="http://www.w3.org/2000/svg" version="1.1" viewBox="0.00 0.00 442.00 114.00">
<circle fill="#00af67" cx="67.30" cy="7.92" r="6.66"/>
<path fill="#00af67" d="
  M 44.72 7.17
  Q 49.93 5.78 55.75 5.44
  A 1.58 1.48 -90.0 0 1 57.31 7.10
  Q 57.25 8.18 56.17 8.31
  Q 50.72 8.93 45.56 10.31
  Q 40.41 11.69 35.38 13.88
  Q 34.37 14.31 33.79 13.41
  A 1.58 1.48 60.0 0 1 34.31 11.19
  Q 39.52 8.57 44.72 7.17
  Z"
/>
<path fill="#00af67" d="
  M 87.14 14.45
  Q 91.21 17.22 94.92 21.04
  A 1.44 1.35 -40.8 0 1 94.70 23.11
  Q 93.92 23.71 93.19 23.04
  Q 89.50 19.64 85.47 16.91
  Q 81.44 14.17 76.93 12.00
  Q 76.03 11.56 76.31 10.62
  A 1.44 1.35 -70.8 0 1 78.15 9.65
  Q 83.07 11.69 87.14 14.45
  Z"
/>
<circle fill="#00af67" cx="25.88" cy="18.54" r="6.65"/>
<path fill="#00af67" d="
  M 25.11 56.99
  C 25.13 85.47 59.41 99.64 79.92 79.79
  A 1.43 1.43 0.0 0 1 81.85 79.74
  L 81.93 79.82
  A 1.26 1.25 43.7 0 1 81.98 81.68
  C 70.91 92.24 55.65 95.17 41.98 88.51
  C 29.77 82.56 21.99 70.45 21.98 56.99
  C 21.97 43.53 29.74 31.41 41.94 25.45
  C 55.60 18.77 70.86 21.67 81.94 32.22
  A 1.26 1.25 -43.8 0 1 81.90 34.08
  L 81.82 34.16
  A 1.43 1.43 0.0 0 1 79.89 34.11
  C 59.35 14.29 25.09 28.51 25.11 56.99
  Z"
/>
<path fill="#00af67" d="
  M 14.08 36.51
  Q 11.88 41.17 10.34 46.24
  Q 10.03 47.25 9.00 47.12
  A 1.52 1.43 10.3 0 1 7.69 45.35
  Q 9.02 39.87 11.25 35.17
  Q 13.47 30.46 16.87 25.97
  A 1.52 1.43 40.4 0 1 19.07 25.86
  Q 19.82 26.57 19.24 27.45
  Q 16.29 31.85 14.08 36.51
  Z"
/>
<path fill="#000000" d="
  M 127.67 57.26
  C 127.80 72.39 147.52 76.51 153.51 62.08
  A 0.37 0.36 11.6 0 1 153.84 61.86
  L 159.33 61.86
  A 0.17 0.16 7.9 0 1 159.49 62.07
  Q 158.09 67.39 154.72 71.04
  C 146.88 79.52 134.53 79.06 126.94 70.55
  Q 122.01 65.03 121.94 57.31
  Q 121.87 49.60 126.70 43.99
  C 134.13 35.34 146.47 34.66 154.47 43.00
  Q 157.90 46.58 159.40 51.88
  A 0.17 0.16 -9.0 0 1 159.24 52.09
  L 153.75 52.19
  A 0.37 0.36 -12.7 0 1 153.41 51.98
  C 147.17 37.66 127.53 42.13 127.67 57.26
  Z"
/>
<path fill="#000000" d="
  M 181.0104 38.2085
  A 19.20 18.99 -91.7 0 1 200.5616 56.8366
  A 19.20 18.99 -91.7 0 1 182.1496 76.5915
  A 19.20 18.99 -91.7 0 1 162.5984 57.9634
  A 19.20 18.99 -91.7 0 1 181.0104 38.2085
  Z
  M 180.9374 44.0249
  A 13.43 13.29 -92.7 0 0 168.2948 58.0660
  A 13.43 13.29 -92.7 0 0 182.2026 70.8551
  A 13.43 13.29 -92.7 0 0 194.8452 56.8140
  A 13.43 13.29 -92.7 0 0 180.9374 44.0249
  Z"
/>
<path fill="#000000" d="
  M 354.8695 38.2103
  A 19.20 19.00 -90.3 0 1 373.9697 57.3105
  A 19.20 19.00 -90.3 0 1 355.0705 76.6097
  A 19.20 19.00 -90.3 0 1 335.9703 57.5095
  A 19.20 19.00 -90.3 0 1 354.8695 38.2103
  Z
  M 354.5013 44.0182
  A 13.43 13.27 -92.0 0 0 341.7081 57.9031
  A 13.43 13.27 -92.0 0 0 355.4387 70.8618
  A 13.43 13.27 -92.0 0 0 368.2319 56.9769
  A 13.43 13.27 -92.0 0 0 354.5013 44.0182
  Z"
/>
<path fill="#00af67" d="
  M 88.33 49.84
  A 0.84 0.84 0.0 0 0 89.12 48.70
  L 86.54 42.08
  A 1.12 1.11 13.9 0 1 88.42 40.95
  L 101.99 56.44
  A 1.84 1.84 0.0 0 1 101.96 58.91
  L 88.53 73.35
  A 1.19 1.19 0.0 0 1 86.55 72.12
  L 89.25 64.95
  A 0.49 0.49 0.0 0 0 88.80 64.28
  L 75.18 64.28
  A 0.98 0.97 -77.8 0 0 74.29 64.86
  C 67.58 79.72 46.55 78.86 40.20 64.29
  C 34.97 52.29 43.74 38.60 56.93 38.40
  Q 68.36 38.24 74.26 48.97
  A 1.71 1.69 75.2 0 0 75.74 49.84
  L 88.33 49.84
  Z"
/>
<path fill="#000000" d="
  M 296.18 48.32
  Q 294.60 48.82 292.05 48.71
  A 1.04 1.04 0.0 0 1 291.14 48.11
  Q 289.92 45.45 287.64 44.67
  C 282.86 43.04 274.83 44.50 276.68 51.45
  A 1.76 1.75 -80.6 0 0 277.41 52.47
  C 283.19 56.35 294.93 52.88 297.53 62.84
  Q 299.01 68.49 294.27 72.70
  C 286.86 79.28 272.95 77.57 270.33 66.63
  A 1.35 1.34 -6.8 0 1 271.64 64.97
  L 274.84 64.97
  A 1.50 1.49 -3.2 0 1 276.33 66.29
  Q 276.56 68.19 278.99 69.47
  Q 284.33 72.29 289.40 69.28
  C 293.23 67.01 293.23 61.94 288.32 60.95
  C 285.29 60.33 282.64 60.19 279.80 59.63
  C 273.28 58.32 269.60 54.48 270.85 47.23
  Q 271.35 44.35 273.76 42.30
  Q 280.82 36.31 289.54 39.41
  Q 295.22 41.43 296.67 47.44
  A 0.74 0.74 0.0 0 1 296.18 48.32
  Z"
/>
<path fill="#000000" d="
  M 234.75 76.25
  A 0.10 0.10 0.0 0 1 234.67 76.41
  L 227.97 76.41
  A 0.63 0.62 71.1 0 1 227.47 76.16
  L 217.57 62.89
  A 1.10 1.10 0.0 0 0 216.69 62.45
  L 212.03 62.45
  A 0.58 0.57 0.0 0 0 211.45 63.02
  L 211.45 75.99
  A 0.42 0.42 0.0 0 1 211.03 76.41
  L 205.95 76.41
  A 0.46 0.45 90.0 0 1 205.50 75.95
  L 205.50 39.07
  A 0.60 0.59 89.5 0 1 206.08 38.47
  Q 210.11 38.44 218.75 38.50
  C 226.21 38.55 234.32 42.23 233.77 51.06
  Q 233.38 57.24 228.07 60.33
  C 226.87 61.03 225.66 61.21 224.63 61.68
  A 0.51 0.50 -31.3 0 0 224.44 62.44
  L 234.75 76.25
  Z
  M 211.48 44.00
  L 211.42 56.78
  A 0.63 0.63 0.0 0 0 212.04 57.41
  L 218.81 57.45
  A 8.68 6.84 0.3 0 0 227.53 50.65
  L 227.53 50.29
  A 8.68 6.84 0.3 0 0 218.89 43.41
  L 212.12 43.37
  A 0.63 0.63 0.0 0 0 211.48 44.00
  Z"
/>
<path fill="#000000" d="
  M 304.51 75.44
  L 304.51 38.93
  A 0.54 0.53 -88.5 0 1 305.07 38.39
  Q 313.60 38.76 317.34 38.68
  Q 322.21 38.58 324.44 39.91
  C 329.76 43.08 331.86 50.07 327.19 54.85
  A 0.62 0.62 0.0 0 0 327.27 55.78
  Q 334.31 60.96 331.12 69.62
  Q 329.51 73.97 323.71 76.01
  A 1.09 0.81 26.9 0 1 323.36 76.07
  L 305.19 76.12
  A 0.68 0.68 0.0 0 1 304.51 75.44
  Z
  M 309.96 44.64
  L 310.04 53.08
  A 0.46 0.46 0.0 0 0 310.51 53.54
  L 319.36 53.45
  A 4.63 4.28 -0.6 0 0 323.94 49.12
  L 323.94 48.32
  A 4.63 4.28 -0.6 0 0 319.26 44.09
  L 310.41 44.18
  A 0.46 0.46 0.0 0 0 309.96 44.64
  Z
  M 310.00 59.63
  L 310.02 70.19
  A 0.46 0.46 0.0 0 0 310.48 70.65
  L 321.00 70.63
  A 5.18 5.06 -0.1 0 0 326.17 65.57
  L 326.17 64.21
  A 5.18 5.06 -0.1 0 0 320.98 59.15
  L 310.46 59.17
  A 0.46 0.46 0.0 0 0 310.00 59.63
  Z"
/>
<path fill="#000000" d="
  M 408.08 65.38
  L 408.08 39.36
  A 0.51 0.51 0.0 0 1 408.60 38.85
  Q 411.41 38.88 419.46 38.72
  Q 426.38 38.59 430.12 40.37
  Q 436.68 43.51 439.12 49.98
  C 442.68 59.43 439.20 70.86 429.67 74.78
  Q 426.00 76.28 419.69 76.14
  Q 416.85 76.08 409.48 76.07
  A 2.24 2.24 0.0 0 1 407.79 75.30
  L 384.69 48.93
  A 0.33 0.32 -65.8 0 0 384.12 49.15
  L 384.12 75.63
  A 0.36 0.36 0.0 0 1 383.76 75.99
  L 378.95 75.99
  A 0.35 0.35 0.0 0 1 378.60 75.64
  L 378.60 39.29
  A 0.62 0.62 0.0 0 1 379.22 38.67
  L 383.54 38.67
  A 1.24 1.21 68.9 0 1 384.46 39.09
  L 407.64 65.55
  A 0.25 0.25 0.0 0 0 408.08 65.38
  Z
  M 414.30 45.04
  L 414.38 69.98
  A 0.68 0.68 0.0 0 0 415.07 70.65
  L 422.04 70.63
  A 12.91 12.75 -0.2 0 0 434.90 57.83
  L 434.90 57.03
  A 12.91 12.75 -0.2 0 0 421.94 44.33
  L 414.97 44.35
  A 0.68 0.68 0.0 0 0 414.30 45.04
  Z"
/>
<path fill="#000000" d="
  M 264.57 57.51
  Q 264.57 58.76 264.61 59.94
  A 0.44 0.43 -1.2 0 1 264.17 60.39
  L 247.31 60.39
  A 0.78 0.77 90.0 0 0 246.54 61.17
  L 246.54 69.85
  A 0.73 0.73 0.0 0 0 247.27 70.58
  L 264.45 70.58
  A 0.63 0.62 -90.0 0 1 265.07 71.21
  L 265.07 75.41
  A 0.63 0.63 0.0 0 1 264.44 76.04
  L 241.16 76.04
  A 0.50 0.50 0.0 0 1 240.66 75.54
  Q 240.65 73.66 240.68 57.46
  Q 240.71 41.27 240.73 39.38
  A 0.50 0.50 0.0 0 1 241.23 38.89
  L 264.51 38.98
  A 0.63 0.63 0.0 0 1 265.14 39.61
  L 265.12 43.81
  A 0.63 0.62 -89.8 0 1 264.50 44.44
  L 247.32 44.37
  A 0.73 0.73 0.0 0 0 246.59 45.10
  L 246.55 53.78
  A 0.78 0.77 -89.8 0 0 247.32 54.56
  L 264.18 54.63
  A 0.44 0.43 1.4 0 1 264.62 55.08
  Q 264.57 56.25 264.57 57.51
  Z"
/>
<circle fill="#00af67" cx="7.89" cy="57.24" r="6.67"/>
<path fill="#00af67" d="
  M 11.21 79.22
  Q 8.99 74.51 7.66 69.02
  A 1.53 1.43 -10.3 0 1 8.97 67.25
  Q 10.01 67.12 10.31 68.13
  Q 11.85 73.21 14.05 77.88
  Q 16.26 82.55 19.21 86.97
  Q 19.79 87.84 19.04 88.56
  A 1.53 1.43 -40.3 0 1 16.84 88.45
  Q 13.44 83.94 11.21 79.22
  Z"
/>
<circle fill="#00af67" cx="25.87" cy="95.37" r="6.65"/>
<path fill="#00af67" d="
  M 87.07 100.06
  Q 83.10 102.74 78.31 104.71
  A 1.40 1.32 71.0 0 1 76.52 103.76
  Q 76.25 102.85 77.13 102.42
  Q 81.53 100.32 85.46 97.67
  Q 89.39 95.01 92.98 91.72
  Q 93.70 91.07 94.45 91.65
  A 1.40 1.32 40.9 0 1 94.66 93.66
  Q 91.04 97.38 87.07 100.06
  Z"
/>
<circle fill="#00af67" cx="67.32" cy="106.11" r="6.67"/>
<path fill="#00af67" d="
  M 44.82 107.23
  Q 39.76 105.89 34.69 103.35
  A 1.53 1.44 -60.1 0 1 34.17 101.20
  Q 34.74 100.32 35.72 100.74
  Q 40.62 102.85 45.63 104.18
  Q 50.64 105.50 55.95 106.10
  Q 57.00 106.22 57.06 107.26
  A 1.53 1.44 89.8 0 1 55.55 108.88
  Q 49.89 108.57 44.82 107.23
  Z"
/>
</svg>
