<?xml version="1.0" encoding="UTF-8" standalone="no"?>
<!DOCTYPE svg PUBLIC "-//W3C//DTD SVG 1.1//EN" "http://www.w3.org/Graphics/SVG/1.1/DTD/svg11.dtd">
<svg xmlns="http://www.w3.org/2000/svg" version="1.1" viewBox="0.00 0.00 660.00 286.00">
<g stroke-width="2.00" fill="none" stroke-linecap="butt">
<path stroke="#014155" vector-effect="non-scaling-stroke" d="
  M 86.39 116.98
  Q 84.71 117.94 81.90 120.16
  C 72.64 127.49 65.59 135.71 60.56 146.17"
/>
<path stroke="#03224c" vector-effect="non-scaling-stroke" d="
  M 60.56 146.17
  C 55.98 157.21 53.51 170.02 55.32 181.74
  C 57.60 196.57 62.06 206.76 72.59 218.55
  C 82.26 229.37 93.69 235.44 107.90 239.37
  C 116.55 241.76 127.10 241.20 135.75 239.93
  A 0.84 0.84 0.0 0 0 136.37 238.71
  L 128.26 222.83
  A 1.00 0.99 -16.5 0 0 127.27 222.30
  Q 110.27 223.99 96.61 215.77
  C 76.97 203.97 69.33 182.47 74.83 160.16"
/>
<path stroke="#014155" vector-effect="non-scaling-stroke" d="
  M 74.83 160.16
  Q 81.27 138.51 102.55 129.15"
/>
<path stroke="#134c62" vector-effect="non-scaling-stroke" d="
  M 102.55 129.15
  Q 114.20 124.66 126.63 125.19
  A 0.88 0.88 0.0 0 0 127.46 124.67
  L 134.54 108.76
  A 0.67 0.67 0.0 0 0 134.03 107.83
  C 117.06 105.25 100.99 107.79 86.39 116.98"
/>
<path stroke="#148db7" vector-effect="non-scaling-stroke" d="
  M 102.55 129.15
  Q 95.36 122.14 86.39 116.98"
/>
<path stroke="#0463a1" vector-effect="non-scaling-stroke" d="
  M 74.83 160.16
  L 60.56 146.17"
/>
<path stroke="#134c62" vector-effect="non-scaling-stroke" d="
  M 170.27 178.43
  Q 169.20 192.12 160.85 203.15"
/>
<path stroke="#014155" vector-effect="non-scaling-stroke" d="
  M 160.85 203.15
  Q 155.45 210.58 147.64 215.65
  A 1.26 1.25 60.1 0 0 147.21 217.27
  L 154.48 231.48
  A 1.01 1.01 0.0 0 0 155.98 231.83
  C 164.56 225.49 172.46 218.28 178.60 209.30"
/>
<path stroke="#134c62" vector-effect="non-scaling-stroke" d="
  M 178.60 209.30
  Q 184.13 200.55 186.76 190.52"
/>
<path stroke="#29506e" vector-effect="non-scaling-stroke" d="
  M 186.76 190.52
  Q 191.26 171.31 185.50 152.73
  C 182.34 142.53 176.34 134.19 169.03 126.38
  Q 162.44 119.35 153.58 114.98
  A 0.64 0.64 0.0 0 0 152.70 115.30
  L 146.15 130.03
  A 1.40 1.38 29.4 0 0 146.64 131.74
  C 162.66 142.63 172.11 158.57 170.27 178.43"
/>
<path stroke="#3c9cd0" vector-effect="non-scaling-stroke" d="
  M 186.76 190.52
  L 170.27 178.43"
/>
<path stroke="#148db7" vector-effect="non-scaling-stroke" d="
  M 178.60 209.30
  Q 170.35 204.51 160.85 203.15"
/>
</g>
<path fill="#000000" d="
  M 220.38 173.88
  A 98.17 98.17 0.0 0 1 122.21 272.05
  A 98.17 98.17 0.0 0 1 24.04 173.88
  A 98.17 98.17 0.0 0 1 122.21 75.71
  A 98.17 98.17 0.0 0 1 220.38 173.88
  Z
  M 86.39 116.98
  Q 84.71 117.94 81.90 120.16
  C 72.64 127.49 65.59 135.71 60.56 146.17
  C 55.98 157.21 53.51 170.02 55.32 181.74
  C 57.60 196.57 62.06 206.76 72.59 218.55
  C 82.26 229.37 93.69 235.44 107.90 239.37
  C 116.55 241.76 127.10 241.20 135.75 239.93
  A 0.84 0.84 0.0 0 0 136.37 238.71
  L 128.26 222.83
  A 1.00 0.99 -16.5 0 0 127.27 222.30
  Q 110.27 223.99 96.61 215.77
  C 76.97 203.97 69.33 182.47 74.83 160.16
  Q 81.27 138.51 102.55 129.15
  Q 114.20 124.66 126.63 125.19
  A 0.88 0.88 0.0 0 0 127.46 124.67
  L 134.54 108.76
  A 0.67 0.67 0.0 0 0 134.03 107.83
  C 117.06 105.25 100.99 107.79 86.39 116.98
  Z
  M 170.27 178.43
  Q 169.20 192.12 160.85 203.15
  Q 155.45 210.58 147.64 215.65
  A 1.26 1.25 60.1 0 0 147.21 217.27
  L 154.48 231.48
  A 1.01 1.01 0.0 0 0 155.98 231.83
  C 164.56 225.49 172.46 218.28 178.60 209.30
  Q 184.13 200.55 186.76 190.52
  Q 191.26 171.31 185.50 152.73
  C 182.34 142.53 176.34 134.19 169.03 126.38
  Q 162.44 119.35 153.58 114.98
  A 0.64 0.64 0.0 0 0 152.70 115.30
  L 146.15 130.03
  A 1.40 1.38 29.4 0 0 146.64 131.74
  C 162.66 142.63 172.11 158.57 170.27 178.43
  Z"
/>
<path fill="#2598c4" d="
  M 102.55 129.15
  Q 95.36 122.14 86.39 116.98
  C 100.99 107.79 117.06 105.25 134.03 107.83
  A 0.67 0.67 0.0 0 1 134.54 108.76
  L 127.46 124.67
  A 0.88 0.88 0.0 0 1 126.63 125.19
  Q 114.20 124.66 102.55 129.15
  Z"
/>
<path fill="#529fdb" d="
  M 186.76 190.52
  L 170.27 178.43
  C 172.11 158.57 162.66 142.63 146.64 131.74
  A 1.40 1.38 29.4 0 1 146.15 130.03
  L 152.70 115.30
  A 0.64 0.64 0.0 0 1 153.58 114.98
  Q 162.44 119.35 169.03 126.38
  C 176.34 134.19 182.34 142.53 185.50 152.73
  Q 191.26 171.31 186.76 190.52
  Z"
/>
<path fill="#0281aa" d="
  M 86.39 116.98
  Q 95.36 122.14 102.55 129.15
  Q 81.27 138.51 74.83 160.16
  L 60.56 146.17
  C 65.59 135.71 72.64 127.49 81.90 120.16
  Q 84.71 117.94 86.39 116.98
  Z"
/>
<path fill="#054498" d="
  M 74.83 160.16
  C 69.33 182.47 76.97 203.97 96.61 215.77
  Q 110.27 223.99 127.27 222.30
  A 1.00 0.99 -16.5 0 1 128.26 222.83
  L 136.37 238.71
  A 0.84 0.84 0.0 0 1 135.75 239.93
  C 127.10 241.20 116.55 241.76 107.90 239.37
  C 93.69 235.44 82.26 229.37 72.59 218.55
  C 62.06 206.76 57.60 196.57 55.32 181.74
  C 53.51 170.02 55.98 157.21 60.56 146.17
  L 74.83 160.16
  Z"
/>
<path fill="#000000" d="
  M 248.46 172.51
  C 248.49 183.68 255.14 189.88 266.16 190.84
  Q 276.42 191.72 284.75 186.43
  A 2.17 2.17 0.0 0 1 287.99 187.61
  L 288.13 188.04
  A 3.20 3.19 -22.3 0 1 286.53 191.85
  Q 272.35 199.05 258.06 194.77
  C 247.78 191.69 242.16 182.91 242.12 172.53
  C 242.09 162.15 247.66 153.34 257.92 150.20
  Q 272.19 145.83 286.41 152.94
  A 3.20 3.19 21.9 0 1 288.03 156.74
  L 287.90 157.17
  A 2.17 2.17 0.0 0 1 284.66 158.37
  Q 276.30 153.13 266.05 154.08
  C 255.03 155.10 248.42 161.34 248.46 172.51
  Z"
/>
<path fill="#000000" d="
  M 341.01 195.99
  L 337.11 195.99
  A 2.92 2.89 -15.9 0 1 334.65 194.64
  Q 331.27 189.32 327.24 183.27
  Q 324.97 179.86 322.85 178.25
  A 7.28 7.28 0.0 0 0 318.36 176.61
  L 303.03 176.39
  A 0.50 0.50 0.0 0 0 302.52 176.89
  L 302.52 195.28
  A 0.63 0.63 0.0 0 1 301.89 195.91
  L 297.25 195.91
  A 0.74 0.74 0.0 0 1 296.51 195.17
  L 296.51 149.41
  A 0.53 0.53 0.0 0 1 297.04 148.88
  Q 307.38 148.78 315.34 148.81
  C 318.93 148.83 323.53 149.41 326.99 149.83
  Q 328.38 149.99 331.27 151.22
  C 344.06 156.65 339.61 174.64 325.97 174.72
  A 0.37 0.37 0.0 0 0 325.76 175.40
  Q 329.62 178.13 332.20 181.53
  Q 335.55 185.93 341.61 194.85
  A 0.73 0.73 0.0 0 1 341.01 195.99
  Z
  M 302.36 155.09
  L 302.48 170.97
  A 0.80 0.80 0.0 0 0 303.28 171.76
  L 323.35 171.62
  A 9.53 8.16 -0.4 0 0 332.82 163.39
  L 332.82 162.23
  A 9.53 8.16 -0.4 0 0 323.23 154.14
  L 303.16 154.28
  A 0.80 0.80 0.0 0 0 302.36 155.09
  Z"
/>
<rect fill="#000000" x="-3.11" y="-23.60" transform="translate(351.06,172.58) rotate(0.2)" width="6.22" height="47.20" rx="1.24"/>
<path fill="#000000" d="
  M 382.38 148.81
  Q 394.45 148.75 406.57 148.84
  A 0.57 0.57 0.0 0 1 407.13 149.41
  L 407.13 153.76
  A 0.56 0.55 -90.0 0 1 406.58 154.32
  L 386.22 154.32
  A 0.72 0.72 0.0 0 0 385.50 155.04
  L 385.50 195.18
  A 0.81 0.80 2.2 0 1 384.63 195.98
  Q 383.43 195.89 382.42 195.89
  Q 381.41 195.89 380.21 195.99
  A 0.81 0.80 -2.4 0 1 379.34 195.19
  L 379.27 155.05
  A 0.72 0.72 0.0 0 0 378.55 154.33
  L 358.19 154.36
  A 0.56 0.55 89.9 0 1 357.63 153.80
  L 357.63 149.45
  A 0.57 0.57 0.0 0 1 358.19 148.88
  Q 370.31 148.78 382.38 148.81
  Z"
/>
<path fill="#000000" d="
  M 448.19 149.64
  L 448.19 153.39
  A 0.81 0.81 0.0 0 1 447.38 154.20
  L 417.62 154.20
  A 0.81 0.81 0.0 0 0 416.81 155.01
  L 416.81 168.65
  A 0.81 0.81 0.0 0 0 417.62 169.46
  L 444.81 169.46
  A 0.81 0.81 0.0 0 1 445.62 170.27
  L 445.62 173.83
  A 0.81 0.81 0.0 0 1 444.81 174.64
  L 417.65 174.64
  A 0.81 0.81 0.0 0 0 416.84 175.45
  L 416.84 189.92
  A 0.81 0.81 0.0 0 0 417.65 190.73
  L 447.29 190.73
  A 0.81 0.81 0.0 0 1 448.10 191.54
  L 448.10 195.03
  A 0.81 0.81 0.0 0 1 447.29 195.84
  L 411.61 195.84
  A 0.81 0.81 0.0 0 1 410.80 195.03
  L 410.80 149.64
  A 0.81 0.81 0.0 0 1 411.61 148.83
  L 447.38 148.83
  A 0.81 0.81 0.0 0 1 448.19 149.64
  Z"
/>
<path fill="#000000" d="
  M 500.00 195.97
  L 496.10 195.98
  A 2.92 2.89 -16.0 0 1 493.63 194.63
  Q 490.25 189.31 486.21 183.26
  Q 483.93 179.85 481.81 178.24
  A 7.29 7.29 0.0 0 0 477.32 176.61
  L 461.98 176.40
  A 0.50 0.50 0.0 0 0 461.47 176.91
  L 461.49 195.30
  A 0.63 0.63 0.0 0 1 460.86 195.93
  L 456.22 195.94
  A 0.74 0.74 0.0 0 1 455.48 195.20
  L 455.43 149.42
  A 0.53 0.53 0.0 0 1 455.96 148.89
  Q 466.30 148.78 474.27 148.80
  C 477.86 148.81 482.46 149.39 485.92 149.81
  Q 487.31 149.97 490.21 151.19
  C 503.01 156.61 498.57 174.61 484.93 174.71
  A 0.37 0.37 0.0 0 0 484.72 175.39
  Q 488.58 178.12 491.17 181.52
  Q 494.52 185.91 500.60 194.83
  A 0.73 0.73 0.0 0 1 500.00 195.97
  Z
  M 461.53 154.82
  L 461.53 171.00
  A 0.63 0.63 0.0 0 0 462.16 171.63
  L 482.08 171.63
  A 9.71 7.79 -0.0 0 0 491.79 163.84
  L 491.79 161.98
  A 9.71 7.79 0.0 0 0 482.08 154.19
  L 462.16 154.19
  A 0.63 0.63 0.0 0 0 461.53 154.82
  Z"
/>
<path fill="#000000" d="
  M 549.17 148.68
  C 563.83 148.98 575.46 157.01 575.14 172.98
  C 574.82 188.96 562.88 196.52 548.22 196.22
  C 533.55 195.93 521.92 187.90 522.24 171.92
  C 522.56 155.95 534.51 148.39 549.17 148.68
  Z
  M 568.8187 170.3928
  A 16.94 16.94 0.0 0 0 551.4988 153.8415
  L 545.0404 153.9880
  A 16.94 16.94 0.0 0 0 528.4891 171.3080
  L 528.5613 174.4872
  A 16.94 16.94 0.0 0 0 545.8812 191.0385
  L 552.3396 190.8920
  A 16.94 16.94 0.0 0 0 568.8909 173.5720
  L 568.8187 170.3928
  Z"
/>
<path fill="#000000" d="
  M 605.70 174.30
  C 601.47 169.61 596.39 164.34 590.57 158.17
  A 0.49 0.49 0.0 0 0 589.86 158.17
  Q 589.81 158.21 589.71 158.37
  A 0.09 0.04 -47.4 0 0 589.69 158.42
  L 589.78 195.03
  A 0.98 0.97 -0.3 0 1 588.80 196.01
  L 585.02 196.01
  A 1.06 1.06 0.0 0 1 583.96 194.95
  L 583.96 149.69
  A 0.99 0.99 0.0 0 1 585.18 148.73
  L 589.01 149.64
  A 0.68 0.62 71.5 0 1 589.33 149.82
  Q 604.36 165.11 609.46 170.76
  C 613.69 175.45 618.77 180.72 624.58 186.89
  A 0.49 0.49 0.0 0 0 625.29 186.89
  Q 625.34 186.85 625.44 186.69
  A 0.09 0.04 -47.4 0 0 625.46 186.64
  L 625.37 150.03
  A 0.98 0.97 -0.3 0 1 626.35 149.05
  L 630.13 149.05
  A 1.06 1.06 0.0 0 1 631.19 150.11
  L 631.19 195.37
  A 0.99 0.99 0.0 0 1 629.97 196.33
  L 626.14 195.42
  A 0.68 0.62 71.5 0 1 625.82 195.24
  Q 610.79 179.95 605.70 174.30
  Z"
/>
<rect fill="#000000" x="507.38" y="149.16" width="6.20" height="46.74" rx="1.05"/>
<path fill="#2598c4" d="
  M 186.76 190.52
  Q 184.13 200.55 178.60 209.30
  Q 170.35 204.51 160.85 203.15
  Q 169.20 192.12 170.27 178.43
  L 186.76 190.52
  Z"
/>
<path fill="#0281aa" d="
  M 178.60 209.30
  C 172.46 218.28 164.56 225.49 155.98 231.83
  A 1.01 1.01 0.0 0 1 154.48 231.48
  L 147.21 217.27
  A 1.26 1.25 60.1 0 1 147.64 215.65
  Q 155.45 210.58 160.85 203.15
  Q 170.35 204.51 178.60 209.30
  Z"
/>
</svg>
